<svg width="750" height="500" viewBox="0 0 750 500" fill="none" xmlns="http://www.w3.org/2000/svg">
<g clip-path="url(#clip0_540_122)">
<path opacity="0.8" d="M750 0H0V500H750V0Z" fill="url(#paint0_radial_540_122)"/>
<path d="M982.941 363.16C975.941 352.66 964.221 354.1 954.751 358.63C942.561 351.92 928.021 346.89 915.131 355.5C916.131 340.05 897.131 329.99 887.131 343.09C872.541 313.42 830.451 308.68 815.131 340C813.721 344 810.401 346.07 807.031 342.88C783.901 317.22 749.911 312.63 739.301 351.09C726.251 349.21 705.881 341.94 701.831 361.16C696.076 358.446 689.734 357.218 683.382 357.586C677.031 357.955 670.873 359.909 665.471 363.27" fill="#FEFEFE"/>
<path d="M-93.1406 233.56C-83.5206 230.35 -69.8706 229.56 -59.2606 231.39C-59.2606 225.69 -48.8606 224.71 -45.2606 227.81C-34.9406 215.36 -15.3306 222.69 -5.1806 227.81C4.8794 221.29 22.4894 218.09 28.7494 230.23C34.2794 230.1 44.6294 227 47.5494 233.17C53.5501 231.587 59.8847 231.81 65.7594 233.81" fill="#FEFEFE"/>
<path d="M524.279 418.82C530.639 418.82 604.469 404.01 627.399 382.29C650.329 360.57 655.279 345.801 678.999 359.641C702.719 373.481 712.689 378.18 725.629 378.46C733.638 378.656 741.621 379.459 749.509 380.86V447L631.999 458.921L524.279 418.82Z" fill="url(#paint1_linear_540_122)"/>
<path d="M294.06 498.201L343.15 431.271C343.15 431.271 279.15 424.791 249.56 399.981C219.97 375.171 186.09 350.201 162.41 358.521C138.73 366.841 80.7096 362.961 63.6796 373.521C46.6496 384.081 0.0996094 387.081 0.0996094 387.081L0.469609 447.261L209.75 498.201H294.06Z" fill="url(#paint2_linear_540_122)"/>
<path d="M264.939 449.201C264.939 449.201 325.939 432.811 359.009 411.921C392.079 391.031 420.379 374.721 432.539 375.801C444.699 376.881 502.439 335.801 512.719 333.181C522.999 330.561 526.269 332.811 541.719 335.031C557.169 337.251 563.719 329.761 576.239 341.421C588.759 353.081 619.529 376.281 651.749 389.941C677.629 400.941 743.229 418.821 743.229 418.821L711.649 486.551L384.719 495.821L264.939 449.201Z" fill="url(#paint3_linear_540_122)"/>
<path d="M0.46875 469.581V420.001C0.46875 420.001 114.199 417.261 172.189 393.321C230.179 369.381 273.879 321.031 306.719 341.321C339.559 361.611 338.089 322.841 368.619 354.601C399.149 386.361 446.679 393.481 477.999 406.861C509.319 420.241 591.079 432.921 591.079 432.921L531.799 486.321L272.549 485.001L0.46875 469.581Z" fill="url(#paint4_linear_540_122)"/>
<path d="M749.549 500V398.27L711.069 391.6C711.069 391.6 681.209 403.73 648.069 403.13C614.929 402.53 608.459 395.87 577.739 389.72C547.019 383.57 505.159 411.12 472.129 411.12C439.099 411.12 396.629 393.34 361.489 393.34C336.639 393.34 271.409 413.46 250.669 411.82C229.929 410.18 199.559 391.4 168.669 405.56C137.779 419.72 0.46875 409.26 0.46875 409.26V500H749.549Z" fill="url(#paint5_linear_540_122)"/>
<path d="M696.36 409H75V335.47C85.19 334.95 95.5 335.11 105.05 331.82C113.16 329.02 120.89 323.33 128.83 320.49C136.77 317.65 147.01 322.33 154.19 315.64C165 305.56 172 289.79 186.71 292.8C192.92 294.07 198.8 296.46 205.14 293.64C211.14 290.99 214.87 284.18 219.83 280.1C222.7 277.75 226.25 276.9 229.18 274.61C230.83 273.33 234.63 268.24 236.18 267.69C244.12 264.76 246.52 270.38 254.74 264.22C261.19 259.38 263.26 256.01 270.19 259.22C275.19 261.57 282.08 269.31 286.19 274.59C294.9 286 302 297.77 312.71 307.53C324.33 318.16 334.3 316.9 347.38 313.36C363.5 308.99 365.7 322.42 379.62 328.64C387.07 331.96 392.85 326.94 399.22 326.56C402.86 326.34 405.07 328.68 408.59 328.38C411.71 328.11 412.67 323.94 416.92 325.38C424.24 337.69 432.67 345.38 445.13 345.97C459.45 346.67 472.25 346.73 484.86 341.03C490.805 338.409 496.568 335.392 502.11 332C510.82 326.64 513.33 329.18 521.46 333.5C533.12 339.71 546.77 334.58 558.02 342.68C563.55 346.68 566.38 354.91 572.66 357.47C577.52 359.47 588.25 357.85 593.06 356.29C606.53 351.91 614.58 339.7 629.62 338.96C643.19 338.29 654.81 334.79 668.73 336.65C679.64 338.11 687.45 336.55 696.36 334.04V409Z" fill="url(#paint6_linear_540_122)"/>
<path d="M750 500V212.49C745.249 213.636 741.119 216.56 738.46 220.66C736.25 224.01 734.069 228.56 730.539 228.35C729.099 228.27 727.76 227.35 726.31 227.27C721.19 227.07 718.439 237.38 713.469 235.93C713.565 235.537 713.572 235.128 713.488 234.732C713.405 234.336 713.233 233.964 712.986 233.643C712.74 233.323 712.424 233.061 712.063 232.879C711.702 232.697 711.304 232.598 710.9 232.59C709.41 232.69 708.18 233.97 707.13 235.26C703.782 239.453 701.177 244.188 699.43 249.26C697.67 243.26 690.9 241.33 686 243.75C681.1 246.17 677.69 251.51 674.52 256.62L657.21 284.54C652.67 291.87 645.74 300.11 638.69 296.69C635.31 295.05 632.93 290.93 629.37 289.96C625.81 288.99 621.82 291.6 618.19 290.44C612.74 288.68 609.82 279.08 604.19 280.04C601.06 280.58 598.26 284.59 595.32 283.18C593.8 282.45 592.88 280.42 591.32 279.82C589.76 279.22 588 280.34 586.32 280.95C578.92 283.68 572.159 275.54 565.049 271.87C552.699 265.49 538.2 273.18 528.46 284.32C525.36 287.86 522.46 291.82 518.68 294.21C515.46 296.21 511.8 297.01 508.2 297.75L480 303.58C465 306.65 449.86 309.78 435.93 317.12C429.3 320.6 422.93 325.03 415.99 327.28C405.16 330.78 393.73 328.78 382.52 328.46C373.34 328.19 280.32 450.55 242.52 500H750Z" fill="url(#paint7_linear_540_122)"/>
<path d="M749.789 500L750 239.12C749.42 238.5 748.85 237.87 748.26 237.25C742.59 231.3 735.689 225.2 727.479 225.48C719.269 225.76 712.04 232.6 703.74 232.35C696.19 232.12 689.65 226.02 682.09 226.24C676.3 226.41 671.349 230.24 666.799 233.84C639.779 255.2 328.89 423.17 184.52 500H749.789Z" fill="url(#paint8_linear_540_122)"/>
<path d="M0 410.67V493H412.06C376.68 391.84 313.64 415 280.83 375.8C248.47 365.51 216.52 358.04 186.83 344.49C186.663 344.17 186.525 343.835 186.42 343.49C185.29 344.016 184.043 344.24 182.8 344.14C182.59 342.73 182.38 341.31 182.16 339.9C179.37 340.65 181.27 343.22 178.26 343.85L176.89 342.75C176.068 342.974 175.28 343.311 174.55 343.75H174.67H174.53L173.61 343.48L173.68 343.63C171.409 343.269 169.202 342.578 167.13 341.58L173.61 343.48C172.06 340.26 175.39 336.17 169.7 336.33C169.49 334.39 169.27 332.45 169.06 330.51C167.647 331.454 166.461 332.701 165.59 334.16L164.66 332.79C163.38 334.53 163.51 337.79 160.58 335.63L159.58 335.9C159.25 333.42 158.82 330.25 155.58 331.58C155.748 330.097 155.505 328.596 154.88 327.24L150.77 331.15C150.17 330.88 149.56 330.65 148.95 330.41C148.435 329.618 148.012 328.769 147.69 327.88H146.32C146.443 326.311 146.095 324.74 145.32 323.37C144.327 323.862 143.38 324.441 142.49 325.1L143.66 317.47C140.07 317.82 140.29 321.84 138.45 324.14C138.4 322.99 138.36 321.84 138.31 320.69C136.97 322.41 137.2 326.18 134.18 325.56V322.16C131.57 324.6 133.97 329.86 128.81 327.98C129.634 326.313 129.805 324.397 129.29 322.61L127.29 327.44C120.98 323.23 118.17 314.67 110.9 311.19C110.8 310.42 110.69 309.66 110.59 308.89C110.203 309.363 109.905 309.902 109.71 310.48C107.059 308.96 104.222 307.79 101.27 307C100.56 305.74 98.9 304.9 97.7 305.68C97.1333 300.973 96.5667 296.267 96 291.56C94.6707 294.983 93.751 298.551 93.26 302.19L92.09 299.19C91.4612 301.341 91.3076 303.604 91.64 305.82C90.14 305.82 88.64 305.9 87.11 305.9C86.58 303.43 86.69 295.99 82.88 300.41C82.7759 296.89 82.2522 293.396 81.32 290L77.32 303.74C76.0087 300.905 75.003 297.938 74.32 294.89L72.97 295.44C72.8454 291.812 72.2229 288.219 71.12 284.76C70.1787 286.566 69.3536 288.429 68.65 290.34L68.41 270.91C64.23 275.51 66.11 283.91 64.51 289.83C64.25 287 64 284.17 63.74 281.34C63.23 285.46 63.01 289.62 62.36 293.72C61.72 293.61 61.08 293.53 60.43 293.46L60 286.83C59.4818 288.944 59.1769 291.105 59.09 293.28C57.98 293.19 56.85 293.13 55.72 293.09C55.6 292.09 55.46 291.15 55.27 290.19C55.19 291.19 55.11 292.1 55.02 293.06C35.26 290.37 20.46 276.22 0.02 271.52L0 410.67Z" fill="url(#paint9_linear_540_122)"/>
<path d="M300.32 425.63C292.54 420.25 283.1 417.7 274.75 413.2C260.16 405.33 249.06 391.65 234.96 383.49L234.54 379.94C233.99 380.757 233.619 381.68 233.45 382.65C230.969 381.295 228.38 380.148 225.71 379.22C225.641 378.816 225.537 378.417 225.4 378.03C224.78 376.39 222.97 375.21 221.68 376.19C221.12 370.684 220.557 365.18 219.99 359.68C218.66 363.72 217.746 367.885 217.26 372.11L216.09 368.63C215.548 370.738 215.359 372.921 215.53 375.09C215.58 375.67 215.65 376.28 215.66 376.88C214.15 376.67 212.66 376.49 211.11 376.35C210.83 374.35 210.557 372.35 210.29 370.35C210.276 369.757 210.069 369.185 209.7 368.72C208.82 367.87 207.59 369.03 206.9 370.09C206.829 365.984 206.336 361.896 205.43 357.89C204.097 363.224 202.763 368.577 201.43 373.95C200.113 370.6 199.108 367.136 198.43 363.6L197.09 364.25C196.965 360.032 196.344 355.843 195.24 351.77C194.294 353.894 193.473 356.071 192.78 358.29L192.54 335.58C191.02 336.35 190.61 338.58 190.42 340.58L188.65 357.73L187.87 347.8L186.67 361.31C186.54 362.7 185.85 364.57 184.67 364.14C184.47 360.85 184.26 357.56 184.06 354.28C183.199 358.333 182.909 362.487 183.2 366.62C183.467 368.499 183.444 370.408 183.13 372.28C183.037 372.665 182.899 373.037 182.72 373.39C181.8 373.22 180.87 373.06 179.95 372.86C180.323 367.97 180.118 363.053 179.34 358.21C178.993 362.97 178.64 367.73 178.28 372.49L176.37 372.05C175.974 370.687 175.377 369.389 174.6 368.2C174.53 369.33 174.43 370.45 174.32 371.58C171.49 370.88 168.68 370.09 165.88 369.25C165.432 366.698 165.198 364.112 165.18 361.52C165.18 359.31 165.26 356.87 164.05 355.17C163.277 359.004 162.503 362.837 161.73 366.67L158.79 361.45C158.465 362.497 157.983 363.488 157.36 364.39C155.774 358.024 155.08 351.468 155.3 344.91C155.396 344.076 155.3 343.232 155.02 342.44C154.68 341.7 153.8 341.23 153.21 341.72C152.876 342.096 152.672 342.569 152.63 343.07C152.01 346.52 152.05 350.58 149.74 352.83C149.182 350.271 148.484 347.744 147.65 345.26C145.48 345.67 147.32 351.26 145.14 351.59C144.717 351.587 144.3 351.488 143.92 351.3C142.04 350.69 139.87 352.25 139.49 354.48C139.135 352.618 138.637 350.786 138 349C137 350 136.63 351.63 136.07 353.05C135.51 354.47 134.46 355.89 133.13 355.78C131.95 355.69 131.13 354.35 130.84 352.99C130.697 351.608 130.734 350.213 130.95 348.84C131.21 345.564 130.795 342.269 129.73 339.16C128.85 343.24 127.967 347.317 127.08 351.39C126.994 351.982 126.695 352.523 126.24 352.91L125.24 352.42C125.162 352.253 125.098 352.079 125.05 351.9C124.583 350.307 124.12 348.717 123.66 347.13C122.936 347.315 122.263 347.664 121.695 348.149C121.126 348.635 120.676 349.244 120.38 349.93C118.947 349.19 117.52 348.44 116.1 347.68C115.7 346.23 116 344.31 115.88 342.68C115.626 340.805 115.008 338.998 114.06 337.36C114.015 340.24 113.533 343.096 112.63 345.83C100.97 339.53 88.76 332.91 75.5 333.26C47.46 334 28.3 364.93 1 369.38V493H340.58C329.05 468.15 305.9 429.49 300.32 425.63Z" fill="url(#paint10_linear_540_122)"/>
<path d="M751 500.001V432.051C718.41 363.321 697.44 373.461 649.44 339.461C649.3 338.461 649.17 337.461 649.03 336.461C648.486 337.131 648.112 337.924 647.94 338.771C645.432 337.606 642.841 336.626 640.19 335.841C640 334.021 637.83 332.211 636.19 333.251C635.623 328.584 635.056 323.891 634.49 319.171C633.168 322.585 632.252 326.143 631.76 329.771L630.6 326.771C629.953 329.063 629.806 331.467 630.17 333.821C628.66 333.631 627.17 333.491 625.61 333.361C625.1 330.901 625.16 323.621 621.41 328.001C621.336 324.484 620.843 320.99 619.94 317.591C618.606 322.164 617.29 326.734 615.99 331.301C614.68 328.472 613.674 325.512 612.99 322.471L611.64 323.021C611.515 319.403 610.895 315.82 609.8 312.371C608.858 314.167 608.036 316.025 607.34 317.931L607.09 298.551C602.93 303.131 604.79 311.551 603.21 317.421L602.43 308.951C601.11 312.951 603.25 321.051 599.27 322.891C599.06 320.081 598.86 317.281 598.65 314.481C596.65 319.771 598.92 325.621 597.32 330.791C596.39 330.641 595.47 330.501 594.55 330.341C594.923 326.162 594.717 321.953 593.94 317.831C593.58 321.891 593.226 325.951 592.88 330.011L590.97 329.641C590.559 328.457 589.961 327.346 589.2 326.351C589.13 327.351 589.03 328.281 588.92 329.241C586.09 328.641 583.27 327.971 580.48 327.241C579.21 323.401 580.8 318.661 578.65 315.241L576.32 325.051L573.38 320.591C573.053 321.504 572.569 322.353 571.95 323.101C568.23 314.661 572.39 291.511 564.34 313.241C563.771 311.047 563.07 308.889 562.24 306.781C559.69 316.281 557.59 308.371 554.08 314.651C553.695 313.056 553.167 311.499 552.5 310.001C545 323.851 545.94 308.211 544.22 301.611C542.9 305.371 542.85 310.041 540.74 313.341L539.74 312.921C539.14 311.451 538.74 309.921 538.16 308.411C537.472 308.543 536.823 308.826 536.257 309.24C535.692 309.653 535.225 310.186 534.89 310.801L530.61 308.881C530.24 305.931 530.61 302.631 528.61 300.061C528.559 302.536 528.071 304.984 527.17 307.291C477.88 273.001 440.32 336.091 390 328.001L389.76 325.761C389.58 326.531 389.453 327.313 389.38 328.101C388.73 328.201 388.09 328.311 387.45 328.431C387.508 326.979 387.319 325.528 386.89 324.141C386.77 325.501 386.64 326.861 386.52 328.221C384.23 327.551 385.33 323.411 384.59 321.461C384.44 322.831 384.28 324.201 384.12 325.561C383.19 322.691 384.2 318.431 381.76 316.411L381.61 325.811C381.172 324.877 380.671 323.975 380.11 323.111C379.454 324.76 379.075 326.507 378.99 328.281L378.17 328.011C377.78 329.378 377.236 330.696 376.55 331.941L376.27 332.061C375.496 329.921 374.723 327.784 373.95 325.651C373.402 327.28 373.102 328.982 373.06 330.701C370.4 328.271 370.75 333.411 370.17 334.971L369.59 334.421C366.83 336.131 368.3 331.421 367.47 330.101L366.76 331.541C366.461 329.755 365.902 328.023 365.1 326.401C364.76 328.681 364.42 330.951 364.1 333.231C359.89 332.491 362.52 338.421 361.1 340.671L360.46 341.091C360.116 340.452 359.674 339.871 359.15 339.371L358.22 340.371C356.49 338.951 357.91 336.281 356.32 334.761L355.48 339.711C354.61 339.458 353.865 338.892 353.39 338.121C353.2 338.901 352.15 343.631 351.13 347.361L342.47 353.211C341.864 350.514 341.43 347.782 341.17 345.031C341.17 347.711 339.17 352.951 338.29 356.031L335.23 358.101C334.23 354.311 333.17 350.961 332.37 350.821C331.9 352.181 331.3 359.711 330.84 361.071L329.14 362.221C328.27 357.871 327.33 352.931 326.79 350.821C325.96 352.821 326.21 359.751 326.48 364.011L320.77 367.881C320.12 365.611 319.28 362.671 318.61 362.101C317.95 363.581 317.72 367.751 317.34 369.331C312.65 365.331 313.65 374.511 309.91 363.711C309.077 365.817 308.379 367.975 307.82 370.171C299.76 348.391 303.93 371.641 300.2 380.031C299.581 379.283 299.097 378.434 298.77 377.521L295.79 382.001L293.47 372.191C291.15 376.731 292.99 382.711 290.8 387.541C278.45 395.041 203.19 463.771 157.26 499.961L751 500.001Z" fill="url(#paint11_linear_540_122)"/>
<path d="M353.93 368.91L356.06 366.79L374.26 385L392.47 366.79L394.59 368.91L374.26 389.24L353.93 368.91Z" fill="white" stroke="#231F20" stroke-width="0.5" stroke-miterlimit="10"/>
<path d="M261.621 345.74C270.081 352.74 284.151 341.23 269.781 335.9C251.871 330.59 266.001 311.8 278.841 319.54L277.691 323C269.371 317.27 258.191 328.41 271.891 332.55C290.471 338.97 274.071 358.21 260.561 349.29L261.621 345.74ZM302.541 350C279.071 360.27 278.891 318.89 302.641 328.36L301.641 331.63C284.341 323.75 285.031 355.13 301.781 346.84L302.541 350ZM307.481 334.89C307.481 332.15 307.481 329.8 307.291 327.64H311.001L311.141 332.2H311.331C312.521 328.68 315.681 326.54 318.961 327.26V331.26C308.881 329.38 312.201 345.26 311.671 350.89H307.491L307.481 334.89ZM343.711 339C343.771 355.73 320.651 355 321.011 339.39C320.431 323.17 344.341 323.23 343.711 339ZM325.281 339.24C324.951 350.9 339.721 350.95 339.391 339.15C340.371 327.86 324.331 327.6 325.281 339.26V339.24ZM349.001 316.76H353.221V350.83H349.001V316.76ZM360.321 316.76H364.551V350.83H360.321V316.76ZM382.001 318.92C417.431 309.72 416.891 358.56 382.001 350.73V318.92ZM386.181 347.52C409.511 353.21 410.261 315.57 386.181 321.99V347.52ZM435.001 339C435.061 355.73 411.941 355 412.301 339.39C411.731 323.17 435.641 323.23 435.001 339ZM416.571 339.24C416.241 350.9 431.001 350.95 430.681 339.15C431.671 327.86 415.631 327.6 416.581 339.26L416.571 339.24ZM441.661 327.58C442.871 332.42 445.601 342.08 446.461 346.78H446.611C447.611 342.09 450.991 332.35 452.461 327.58H456.001C457.441 332.38 460.691 342.17 461.661 346.78H461.811C462.511 342.19 465.621 332.33 466.891 327.58H471.071L463.581 350.81H459.741C458.211 345.81 455.141 337.15 454.131 332.09H454.031C453.031 337.26 449.811 345.8 448.181 350.81H444.341L437.341 327.58H441.661ZM475.291 333.87C475.291 331.47 475.291 329.5 475.101 327.58H478.851L479.091 331.42H479.181C493.781 317.15 496.571 338.42 495.061 350.81H490.841C489.841 345.73 494.101 330.49 485.471 330.56C476.341 330.56 480.351 345.56 479.471 350.81H475.301L475.291 333.87Z" fill="white" stroke="#231F20" stroke-width="0.5" stroke-miterlimit="10"/>
<path d="M599.721 500V408.89C566.211 398.24 537.621 358.43 501.161 388.1C500.362 385.689 499.934 383.17 499.891 380.63C498.041 383.31 498.411 386.77 498.091 389.75C496.841 390.42 495.581 391.08 494.321 391.75C494.059 391.143 493.661 390.604 493.158 390.174C492.656 389.744 492.061 389.435 491.421 389.27C490.951 390.82 490.561 392.41 490.031 393.94L489.171 394.38C487.271 390.84 487.271 386.15 486.091 382.24C484.571 388.48 485.611 405.3 478.791 390.92C478.204 392.475 477.74 394.073 477.401 395.7C474.341 389.43 472.221 397.04 470.201 387.56C469.462 389.751 468.844 391.981 468.351 394.24C461.301 371.91 464.891 396.24 461.631 404.44C461.074 403.647 460.648 402.769 460.371 401.84C459.498 403.38 458.631 404.92 457.771 406.46C457.104 403.073 456.438 399.69 455.771 396.31C453.861 399.9 455.271 404.78 454.151 408.73C451.681 409.47 449.151 410.17 446.701 410.79C446.601 409.79 446.521 408.79 446.461 407.79C445.774 408.842 445.248 409.992 444.901 411.2L443.211 411.58C442.904 407.38 442.591 403.18 442.271 398.98C441.585 403.254 441.407 407.594 441.741 411.91C440.921 412.08 440.101 412.22 439.291 412.38C437.871 406.98 439.841 400.99 438.111 395.51L437.571 404.21C433.931 401.98 436.011 393.9 434.781 389.8L434.091 398.55C432.661 392.46 434.411 384.03 430.661 379.04L430.451 399.04C429.835 397.083 429.107 395.163 428.271 393.29C427.305 396.881 426.762 400.573 426.651 404.29L425.461 403.72C424.865 406.842 423.981 409.901 422.821 412.86C421.661 408.127 420.498 403.4 419.331 398.68C418.523 402.232 418.077 405.858 418.001 409.5C414.501 404.96 414.781 412.82 414.301 415.04C412.951 415.17 411.611 415.32 410.301 415.51C410.613 413.08 410.481 410.613 409.911 408.23L408.911 411.3C408.48 407.561 407.669 403.875 406.491 400.3C405.998 405.16 405.501 410.017 405.001 414.87C403.491 413.74 401.561 415.87 401.451 417.55C399.094 418.363 396.806 419.366 394.611 420.55C394.45 419.692 394.109 418.877 393.611 418.16C393.491 419.16 393.371 420.25 393.241 421.29C358.701 452 331.331 448.79 309.121 500H599.721Z" fill="url(#paint12_linear_540_122)"/>
<path d="M458.76 482C463.92 477 447.02 482.58 460.15 473.86C463.21 469.46 449.6 474.37 454.7 468.14C456.57 465.88 450.84 466.07 453.17 463.83C455.35 460.15 447.59 463.26 447.97 459.73C448.24 456.79 453.6 458.1 453.86 455.2C452.59 453.84 445.2 454.47 450.05 450.91C450.83 450.27 450.68 448.98 449.56 449.15C438.28 450.07 456.97 443.81 444.47 444.15C444.4 436.73 440.47 435.86 440.47 444.58C438.32 444.52 434.36 445.06 438.13 447.35C445.01 451.46 431.92 446.44 438.04 453.61C428.36 453.16 440.26 457.66 436.38 460.23C429.96 459.51 437.38 463.28 436.03 465.23C433.81 465.12 426.34 462.87 429.36 467.37C430.77 468.45 434.8 469.04 433.52 471.56C419.52 471.91 431.83 468.27 427.3 466.4C417.83 466.58 430.45 461.56 429.15 458.67C419.53 458.94 424.48 457.76 421.85 450.54C424.68 445.78 408.11 451.47 422.54 441.91C417.41 439.62 416.13 442.23 418.93 435.98C407.08 436.79 424.59 430.6 413.15 430.83C413.3 423.74 408.93 422.94 409.15 431.27C407 431.2 403.04 431.74 406.81 434.03C413.69 438.14 400.61 433.12 406.72 440.3C397.04 439.84 408.95 444.3 405.06 446.91C398.65 446.19 406.06 449.97 404.71 451.91C390.61 450.33 400.23 452.99 402.3 458.09C401.56 460.09 394.96 457.09 398.39 460.76C404.8 464.14 396.67 465.18 393.59 463.14C394.71 458.63 381.06 463.57 392.88 456.46C380.68 455.53 399.17 451.46 387.12 451.73C381.58 449.21 395.42 448.03 386.43 446.5C380.59 444.56 390.85 443.03 386.83 441.66C385.61 441.97 383.07 441.5 383.96 439.82C390.87 437.75 383.24 438.4 383.28 435.89C388.2 434.17 383.07 434.26 383.02 432.38C387.46 433.73 381.08 418.38 379.35 429.21C378.55 431.5 373.86 430.12 377.8 433.05C380.32 436.99 375.3 434.3 374.55 436.05C379.25 442.05 372.98 438.24 373.46 441.83C376.99 445.83 374.57 444.98 371.21 445.16C373.82 449.16 373.29 453.38 367.53 450.88C365.91 449.21 371.85 446.98 367.93 446.44C357.15 446.87 374.15 440.06 368.82 438.44C361.04 439.59 365 437.92 362.49 430.56C364.66 426.88 356.9 429.98 357.29 426.46C357.6 423.76 361.91 424.64 363.02 422.6C363.96 419.95 353.66 421.88 359.36 417.6C362.06 413.96 352.57 418.15 355.71 413.93C360.71 411.93 357.27 410.76 353.79 410.81C353.25 410.54 354.42 402.35 350.24 405.89C351.99 414.79 342.58 409.45 347.46 414.02C354.34 418.13 341.25 413.1 347.37 420.28C337.69 419.83 349.59 424.28 345.71 426.9C339.29 426.17 346.71 429.9 345.36 431.9C331.25 430.32 340.88 432.98 342.95 438.09C342.13 439.65 339.9 438.43 338.5 438.66C336.69 440.54 346.85 444.79 337.63 444.2C345.28 438.51 327.63 444.77 337.17 435.45C331.72 433.7 330.85 433.74 335.53 429.29C332.84 427.15 329.89 429.97 333.11 423.85C330.63 423.72 328.82 424.35 331.44 421.38C331.64 418.82 327.23 421.26 330.63 417.08C326.63 416.13 327.77 416.42 329.35 413.3C324.99 412.62 326.09 404.01 323.45 412.85C321.76 413.27 323.13 414.85 324.35 414.38C324.03 415.59 321.07 416.1 324.15 416.98C324.02 418.7 318.82 418.68 323.64 419.9C324.31 421.15 322.42 421.5 321.51 421.27C318.51 422.27 326.15 423.42 321.81 424.87C314.81 426.16 325.45 426.87 321.3 428.74C312.3 428.56 326.08 431.56 317.02 432.26C328.02 438.97 310.64 432.57 318.42 438.63C317.66 440.63 312.01 437.48 313.33 440.45C315.65 441.29 317.44 442.7 314.2 443.92C310.09 445 312.2 445.66 310.95 443.3C304.61 443.55 314.62 439.53 311.48 438.59C306.05 439.59 309.75 436.68 308.15 435.24C308 435.238 307.855 435.189 307.735 435.099C307.615 435.009 307.526 434.884 307.482 434.741C307.437 434.597 307.439 434.444 307.488 434.302C307.536 434.16 307.628 434.037 307.75 433.95C307.99 431.18 300.05 433.1 308.06 429.26C308.61 427.69 302.54 428.83 305.91 426.33C307.5 424.18 301.91 426.65 303.75 424.17C306.75 422.99 304.67 422.3 302.62 422.33C302.3 422.17 302.99 417.33 300.53 419.43C301.53 425.01 295.84 421.18 298.89 424.22C302.82 426.56 295.22 423.81 298.84 427.91C293.14 427.64 300.14 430.3 297.84 431.81C294.06 431.38 298.4 433.61 297.63 434.76C290.49 433.76 294.27 435.31 296.23 438.36C275.41 432.94 311.78 429.87 286.45 424.02C285.45 419.94 291.37 419.02 292.55 415.67C289.98 410.92 280.76 419.3 287.93 405.28C283.19 405.03 279.73 406.28 284.74 400.56C285.74 395.31 276.43 401.39 283.19 392.36C282.76 390.09 279.67 392.36 278.39 391.6C275.39 389.48 281.8 386.6 280.74 385.14C272.31 384.33 275.08 366.52 269.48 384.28C266.25 385.09 268.87 388.02 271.19 387.19C271.13 389.81 263.86 389.78 270.82 392.19C271.98 394.91 265.23 393.7 265.97 396.26C266.46 397.61 268.9 396.67 269.85 397.76C271.11 400.13 267.51 400.82 265.78 400.37C260.09 402.32 274.64 404.47 266.36 407.24C254.19 409.14 272.93 411.32 265.36 414.65C247.65 413.65 274.08 421.36 258.6 420.49C252.19 418.38 251.1 418.49 256.66 413.18C253.51 410.57 249.94 414.26 253.8 406.76C250.86 406.61 248.72 407.35 251.8 403.84C252.23 400.67 246.72 404.1 250.8 398.77C245.96 397.48 247.19 398.31 249.28 394.3C246.34 394.19 246.45 391.66 245.28 389.6C242.28 387.3 243.99 393.14 242.34 393.77C240.34 394.27 241.96 396.08 243.4 395.57C243.4 397.19 238.87 397.17 243.17 398.65C243.17 400.74 236.66 400.5 242.57 402.1C243.35 403.56 241.12 403.99 240.05 403.71C236.53 404.92 245.53 406.25 240.41 407.96C232.6 409.29 244.63 410.32 239.8 412.54C229.21 412.33 245.45 415.87 234.8 416.7C245.25 423.16 234.08 418.52 233.97 422.28C242.69 426.86 227.78 422.8 230.49 426.42C238.41 429.82 227.39 431.29 227.96 427.21C221.62 427.13 231.82 423.64 228.74 422.53C224.58 423.53 225.98 420.02 225.26 417.7C225.33 414.77 217.82 416.99 225.82 413.04C226.45 411.5 220.34 412.32 223.82 410.04C225.52 407.98 219.82 410.16 221.82 407.77C224.82 406.77 222.82 405.96 220.82 405.88C220.51 405.7 221.46 400.88 218.89 402.88C219.63 408.5 214.11 404.39 217 407.58C220.79 410.11 213.36 406.98 216.74 411.26C211.07 410.7 217.92 413.71 215.56 415.1C211.81 414.48 216.03 416.93 215.2 418.04C204.73 415.27 218.35 422.82 210.95 421.81C215.83 427.64 200.28 422.89 209.01 418.1C206.32 415.96 203.37 418.77 206.6 412.66C204.11 412.53 202.3 413.16 204.92 410.19C205.12 407.63 200.71 410.07 204.12 405.89C200.01 404.97 201.32 405.16 202.83 402.11C200.35 402.02 200.44 399.88 199.42 398.11C196.89 396.17 198.33 401.11 196.93 401.64C195.24 402.07 196.61 403.64 197.83 403.17C193.45 406.31 200.39 405.17 196.45 406.89C192 407.63 200.9 409.4 195.55 410.1C195.93 407.77 187.89 410.72 191.28 406.45C192.63 404.8 188.59 404.99 190.11 403.36C191.95 400.66 186.11 402.85 186.41 400.3C186.62 398.16 190.51 399.14 190.71 397.03C189.8 396.03 184.4 396.45 187.95 393.89C189.95 391.25 182.95 394.26 185.3 391.21C186.03 390.74 187.52 390.56 187.23 389.5C180.85 389.72 185.95 383.15 181.36 385.33C180.28 386.24 182.29 388.39 181.01 389.23C179.45 389.18 176.56 389.55 179.3 391.23C184.15 394.15 174.77 390.69 179.21 395.79C172.21 395.42 180.81 398.79 177.98 400.6C171.77 400.12 183.5 406.14 174.29 403.79C175.68 403.41 176.04 401.22 174.18 401.47C163.4 401.9 180.4 395.09 175.07 393.47C167.29 394.59 171.27 393.08 168.73 385.6C171.57 380.84 154.99 386.53 169.43 376.96C164.29 374.68 163.01 377.29 165.82 371.04C164.33 370.85 159.73 372.04 161.96 369.04C166.96 367.04 163.52 365.87 160.04 365.92C159.5 365.65 160.67 357.46 156.49 361C158.23 369.81 148.91 364.61 153.71 369.12C160.59 373.23 147.5 368.21 153.62 375.39C143.94 374.93 155.84 379.39 151.96 382C145.54 381.28 152.96 385.05 151.61 387C137.5 385.43 147.13 388.09 149.2 393.19C141.93 395.29 144.2 392.83 147.63 398.3C145.03 401.46 138.15 395.14 138.22 400.71C127.71 396.52 149.3 396.42 133.39 392.12C142.98 379.22 128.27 392.56 134.31 380.53C131.37 380.37 129.23 381.12 132.31 377.61C132.74 374.44 127.23 377.87 131.31 372.53C131.05 371.13 129.14 372.53 128.31 372.06C130.25 364.64 128.48 371.06 125.74 363.36C122.74 361.07 124.45 366.91 122.8 367.54C120.8 368.03 122.42 369.85 123.86 369.33C123.86 370.96 119.32 370.93 123.63 372.41C123.63 374.52 117.12 374.26 123.03 375.86C123.86 377.86 121.03 377.4 119.87 377.58C120.07 380.78 126.5 379.68 118.43 382.49C115.71 382.57 115.68 381.49 116.89 379.29C115.31 379.29 114.18 379.39 115.8 377.67C115.93 376 113.04 377.59 115.27 374.86C112.66 374.17 113.27 374.55 114.43 372.38C112.8 372.32 112.86 370.92 112.19 369.78C111.34 368.47 109.25 374.11 111.19 373.09C110.99 373.88 109.05 374.21 111.07 374.79C110.97 375.92 107.58 375.91 110.73 376.7C111.17 377.52 109.93 377.7 109.34 377.6C107.34 378.26 112.34 379 109.54 379.95C105.08 380.66 111.84 381.33 109.2 382.49C103.74 382.2 111.99 384.49 106.4 384.79C111.69 388.08 107.01 385.63 105.94 387.88C109.11 389.6 105.45 389.44 103.87 389.27C109.49 385.36 93.8104 386.91 98.3904 382.2C108.6 376.01 87.2504 378.91 99.6404 370.41C96.5504 367.27 91.9004 372.05 96.4404 363.17C93.1404 362.99 90.7404 363.83 94.2204 359.89C94.7004 356.32 88.5104 360.18 93.1504 354.19C83.6004 352.57 95.0504 349.98 90.3604 348.83C87.6804 349.24 86.4604 338.72 84.5704 345.43C85.5704 348.06 79.6804 350.59 84.8004 350.59C84.8004 352.41 79.7104 352.39 84.5504 354.05C84.4904 356.41 77.2204 356.13 83.8704 357.93C84.7504 359.58 82.2504 360.05 81.0404 359.74C77.0404 361.1 87.2004 362.59 81.4404 364.52C72.5804 366 86.2104 367.19 80.7604 369.67C68.8604 369.43 87.1104 373.41 75.0804 374.33C75.2604 376.59 80.0804 375.4 79.9204 377.84C78.0104 380.77 69.5304 377.12 76.9204 382.84C75.9204 385.43 68.3304 381.3 70.2304 385.3C73.3404 386.37 75.5404 388.3 71.3204 389.86C70.2715 389.908 69.2583 390.255 68.4004 390.86C47.4004 386.12 82.6404 381.5 58.0904 376.38C57.0904 372.3 63.0104 371.33 64.1904 368.03C61.6304 363.28 52.4004 371.66 59.5804 357.64C54.8304 357.39 51.3704 358.64 56.3804 352.93C57.3804 347.67 48.0804 353.75 54.8404 344.72C54.4104 342.45 51.3204 344.72 50.0304 343.96C47.0304 341.84 53.4404 338.96 52.3904 337.5C47.6404 337.33 47.8104 333.23 45.8704 329.9C41.0404 326.21 43.7904 335.62 41.1204 336.64C37.9004 337.45 40.5104 340.38 42.8404 339.55C42.7804 342.17 35.5004 342.14 42.4704 344.55C43.6204 347.27 36.8704 346.06 37.6104 348.62C41.9004 349.51 43.5404 353.28 37.4204 352.73C31.7304 354.68 46.2804 356.83 38.0004 359.6C25.8304 361.5 44.5804 363.68 37.0004 367C19.3804 366.87 46.5604 372.15 28.8304 373.72C29.0904 376.96 35.9804 375.25 35.8304 378.72C32.6304 383.14 21.3304 377.24 31.4604 385.97C14.7004 383.2 37.8204 379.89 22.8404 376.6C32.4404 363.69 17.7304 377.03 23.7604 365C20.8304 364.84 18.6904 365.59 21.7604 362.08C22.1804 358.91 16.6704 362.34 20.7604 357.01C20.4904 355.6 18.5804 357.01 17.7604 356.54C19.7004 349.1 17.9704 355.54 15.1904 347.84C12.1904 345.54 13.9004 351.38 12.2604 352.01C10.2604 352.5 11.8704 354.32 13.2604 353.81C13.2604 355.43 8.72038 355.4 13.0404 356.89C12.9804 358.99 6.53038 358.73 12.4304 360.34C13.2704 362.34 10.4304 361.88 9.28038 362.05C8.87038 364.96 16.2804 364.21 8.08038 366.78C11.9104 363.78 4.78038 363.78 7.15038 361.15C10.2304 356.94 -5.29962 360.33 4.31038 354.27C5.76038 353.88 7.84038 353.45 7.91038 351.73C7.20038 349.86 1.11038 352.05 2.20038 348.44C5.63038 345.86 3.95038 344.57 0.350377 345.5C-0.749623 344.2 0.160377 465.91 0.120377 500H467.87C473.79 495.49 471.59 489.61 458.76 482ZM10.8804 370C9.52038 370.11 7.83038 369.11 7.88038 367.75C8.48038 368.61 11.5504 368.23 10.8804 370ZM118.35 388.35C118.47 388.35 118.57 388.45 118.68 388.49C121.24 390.56 115.34 390.33 118.35 388.34V388.35ZM116.45 385.68C116.13 384.44 117.77 384.03 118.33 383.18C124.28 385.1 120 387.49 116.45 385.67V385.68ZM193.57 417.44C193.69 416.71 195.19 415.22 195.66 416.22C196.13 417.22 194.42 417.74 193.57 417.43V417.44ZM193.08 415.06C189.62 414.47 193.03 411.92 194.56 411.2C200.14 413 192.92 413.23 193.08 415.05V415.06ZM258.89 432.12C259.163 432.22 259.417 432.365 259.64 432.55C259.28 432.55 258.94 432.53 258.89 432.11V432.12ZM261.26 428.12C259.68 427.12 257.44 427.12 255.8 426.35C251 418.85 271.7 425.92 261.26 428.12ZM391 465C390.95 464.833 390.965 464.653 391.041 464.496C391.116 464.338 391.248 464.215 391.41 464.15C391.06 464.53 391.49 466 391 465ZM430.5 476.52H432C431.85 477.15 431 476.53 430.52 476.55L430.5 476.52Z" fill="url(#paint13_linear_540_122)"/>
<path d="M761.441 506.06C755.791 505.87 772.361 323.49 754.271 344.06C752.961 341.14 764.151 337.39 754.611 338.19C750.371 337.75 755.611 334.19 752.891 333.39C750.401 332.97 754.751 329.06 750.691 330C741.951 328.65 758.091 324.42 750.821 324.07C749.661 324.21 748.161 323.24 748.671 322.2C754.291 317.74 744.151 321.89 746.861 318.2C750.921 316.61 748.111 315.61 745.311 315.68C744.881 315.46 745.821 308.85 742.451 311.68C743.931 319.09 736.091 314.24 740.201 318.24C745.341 321.24 735.201 317.99 740.121 323.3C732.311 322.94 741.921 326.56 738.791 328.64C733.601 328.06 739.561 331.1 738.501 332.69C723.921 329.64 743.221 339 732.971 338.15C731.271 339.94 738.161 341.01 734.191 342.8C725.191 340.47 726.571 344.35 733.321 346.9C732.471 350.18 726.151 347.53 726.861 351.51C726.715 351.083 726.439 350.712 726.071 350.45C725.703 350.189 725.263 350.048 724.811 350.05C720.891 348.63 727.061 348.05 725.131 346.79C724.131 346.67 722.641 347.44 721.971 346.48C726.971 342.89 715.621 346.19 722.911 342.18C717.161 341.88 725.651 339.52 720.031 339.81C717.311 338.62 724.271 337.93 719.681 337.2C716.761 336.2 721.891 335.46 719.881 334.78C719.271 334.93 718.001 334.69 718.451 333.85C721.701 333.03 718.191 333.04 718.101 331.85C720.181 331.25 718.181 330.91 717.971 330.09C719.971 331.17 717.761 325.26 716.901 326.68C714.211 329.68 716.741 331.26 713.741 331.91C715.901 334.35 713.181 333.23 713.191 334.81C714.851 336.58 713.691 336.46 712.061 336.47C714.131 340.02 712.261 338.93 710.431 340.14C713.431 342.82 712.811 343.3 709.331 344.29C715.711 351.14 704.051 345.81 709.061 350.29C707.381 351.385 705.642 352.386 703.851 353.29C697.971 351.47 709.721 350.02 700.951 348.36C705.951 341.87 698.181 347.75 701.471 341.74C699.841 341.74 698.691 341.84 700.341 340.07C700.341 338.5 697.651 339.6 699.801 337.18C697.231 336.54 697.731 336.7 698.931 334.63C697.261 334.57 697.321 333.12 696.631 331.95C694.881 330.85 694.161 337.79 695.431 337.11C691.551 339.48 698.211 339.28 693.291 340.06C692.531 341.19 696.541 341.3 693.861 342.42C689.261 343.15 696.231 343.84 693.511 345.04C688.511 344.41 695.631 347.58 690.831 347.21C684.831 345.88 692.751 344.21 687.281 343.07C690.791 338.68 685.381 342.32 687.661 338.24C686.471 338.24 685.661 338.32 686.841 337.03C686.841 335.88 684.841 336.67 686.441 334.91C684.511 334.18 685.761 332.98 684.131 331.09C683.451 330.17 681.901 334.28 683.351 333.58C683.181 334.2 681.751 334.41 683.251 334.86C683.181 335.72 680.641 335.69 683.001 336.3C683.331 336.91 682.401 337.09 682.001 336.97C680.541 337.48 684.291 338.03 682.151 338.74C678.801 339.28 683.881 339.74 681.901 340.65C678.401 340.36 683.381 342.26 679.801 342.38C684.191 345.6 670.211 342.9 679.801 336.76C676.421 334.32 672.961 337.08 676.801 330.06C673.801 330.06 671.711 330.25 674.741 327.06C674.981 323.93 669.571 326.87 673.741 321.77C666.841 320.23 674.571 320.77 667.961 312.22C664.851 309.82 666.631 315.91 664.901 316.56C662.831 317.08 664.501 318.97 666.011 318.44C665.601 319.99 662.011 320.5 665.771 321.65C665.601 323.78 659.221 323.72 665.141 325.24C665.951 326.77 663.641 327.24 662.521 326.92C658.851 328.17 668.231 329.57 662.891 331.35C654.501 332.68 667.221 333.93 662.261 336.12C651.971 335.58 667.511 339.9 656.991 340.45C657.161 342.54 661.601 341.45 661.481 343.7C659.621 346.48 651.751 343.03 658.711 348.3C657.781 350.7 650.821 346.88 652.441 350.53C655.441 351.53 657.301 353.53 653.581 354.75C645.871 356.27 648.501 367.56 643.581 372.81C638.481 372.87 642.021 369.86 643.741 368.03C641.301 366.43 638.841 367.82 641.571 363.15C639.401 363.15 637.871 363.29 640.071 360.94C640.071 358.85 636.491 360.31 639.351 357.09C635.931 356.24 636.601 356.46 638.201 353.7C635.971 353.62 636.051 351.7 635.141 350.14C632.871 348.39 634.141 352.82 632.911 353.3C631.401 353.68 632.621 355.06 633.721 354.66C633.421 355.79 630.801 356.17 633.541 357C633.421 358.55 628.771 358.51 633.091 359.62C633.681 360.74 631.991 361.05 631.171 360.84C628.511 361.75 635.331 362.77 631.451 364.06C625.341 365.06 634.601 365.95 630.991 367.54C623.511 367.15 634.791 370.29 627.151 370.69C634.441 375.37 627.881 371.96 626.521 374.92C631.151 377.68 625.441 376.46 623.681 377.14C631.471 369.95 619.511 376.14 624.461 368.44C622.121 368.44 620.461 368.59 622.841 366.05C623.031 363.6 618.841 365.9 622.061 361.91C615.061 360.53 623.291 359.29 620.061 358.01C618.121 358.31 617.221 350.66 615.841 355.54C616.601 357.45 612.291 359.3 616.011 359.29C615.701 360.51 612.871 360.91 615.831 361.81C615.691 363.48 610.691 363.43 615.331 364.63C615.971 365.83 614.151 366.17 613.331 365.95C610.451 366.95 617.811 368.02 613.621 369.42C607.041 370.47 617.021 371.42 613.121 373.16C605.121 372.74 617.231 376.16 608.991 376.56C619.581 382.86 602.991 377.13 610.341 382.71C609.341 384.09 607.181 382.98 605.821 383.16C605.391 387.22 612.901 385.54 602.451 389.28C596.741 389.76 607.081 384.83 600.931 385.77C599.141 385.54 600.831 384.77 599.661 382.09C598.721 379.62 594.601 381.94 599.971 378.2C597.631 377.35 597.241 378.04 598.351 375.53C597.681 375.44 595.601 375.97 596.601 374.61C598.871 373.72 597.301 373.16 595.741 373.2C595.501 373.08 596.031 369.39 594.141 370.98C595.081 374.5 590.811 372.8 592.881 374.65C595.751 376.3 590.091 374.51 592.881 377.47C588.531 377.28 593.881 379.3 592.131 380.47C589.241 380.15 592.571 381.84 591.971 382.73C584.611 381.06 594.221 386.4 588.881 385.78C587.881 386.78 591.781 387.38 589.571 388.38C584.851 387.04 585.441 389.38 589.081 390.67C588.711 392.39 583.851 391.32 585.901 393.67C583.081 394.67 577.901 395.06 581.611 390.9C577.531 390.25 578.361 382.02 575.951 390.48C574.331 390.88 575.641 392.35 576.811 391.93C576.491 393.14 573.681 393.54 576.621 394.43C576.491 396.1 571.521 396.05 576.131 397.23C576.771 398.43 574.961 398.76 574.131 398.54C571.271 399.54 578.581 400.61 574.421 401.99C567.891 402.99 577.801 403.99 573.931 405.71C565.931 405.29 578.001 408.65 569.831 409.08C580.341 415.34 563.881 409.65 571.161 415.2C570.221 416.56 568.021 415.46 566.671 415.64C563.921 417.48 572.671 418.26 567.121 420.27C565.551 420.05 563.241 422.1 565.121 423.62C564.031 424.85 559.701 425.92 563.271 423.77C560.101 422.54 561.701 422.97 562.471 421.25C558.301 421.2 564.011 419.84 561.321 419.37C559.321 418.56 562.891 418.74 560.521 417.22C562.741 417.22 560.171 416.12 560.621 414.97C559.791 412.05 559.261 416.63 558.101 416.45C556.231 417.27 561.161 418.15 556.891 418.79C558.741 420.88 556.411 419.91 556.421 421.27C557.841 422.78 556.851 422.68 555.421 422.69C557.081 425.33 555.511 424.95 554.021 425.84C556.591 428.13 556.021 428.54 553.081 429.4C559.471 434.72 539.611 437.13 549.951 428.62C547.111 426.76 544.241 428.38 547.421 422.94C544.891 422.94 543.121 423.1 545.681 420.36C545.881 417.72 541.301 420.2 544.831 415.88C539.301 414.88 545.221 414.34 539.931 407.79C537.301 405.79 538.801 410.91 537.341 411.47C535.591 411.91 537.001 413.47 538.281 413.06C537.941 414.37 534.881 414.81 538.081 415.78C537.931 417.58 532.521 417.53 537.541 418.78C538.231 420.08 536.271 420.45 535.321 420.21C532.211 421.27 540.161 422.45 535.641 423.96C528.531 425.09 539.311 426.15 535.101 428.01C526.401 427.55 539.541 431.2 530.641 431.67C530.781 433.44 534.541 432.51 534.441 434.43C523.361 436.88 539.061 439.25 527.211 438.81C524.211 440.81 533.691 441.81 527.751 443.81C508.191 460.21 487.751 484.22 460.101 483.73C204.401 521.41 763.061 501.47 761.441 506.06ZM690.051 348.19C691.871 347.02 694.961 350.52 690.921 349.78C690.361 349.44 689.151 348.86 690.051 348.19ZM678.541 347.77C679.761 346.82 679.231 347.95 678.361 348.19C677.931 348.27 678.291 348 678.541 347.77ZM623.811 378.06C624.282 378.396 624.811 378.644 625.371 378.79C624.691 378.93 623.401 378 623.811 378.06Z" fill="url(#paint14_linear_540_122)"/>
</g>
<defs>
<radialGradient id="paint0_radial_540_122" cx="0" cy="0" r="1" gradientUnits="userSpaceOnUse" gradientTransform="translate(375 -35) scale(318.69)">
<stop stop-color="#F07560"/>
<stop offset="0.1" stop-color="#FFDBA6"/>
<stop offset="0.8" stop-color="#FFAB93"/>
</radialGradient>
<linearGradient id="paint1_linear_540_122" x1="641.979" y1="274.901" x2="638.019" y2="334.361" gradientUnits="userSpaceOnUse">
<stop stop-color="#2C2C50"/>
<stop offset="1" stop-color="#434375"/>
</linearGradient>
<linearGradient id="paint2_linear_540_122" x1="59131.6" y1="40774.9" x2="59071.1" y2="48840.4" gradientUnits="userSpaceOnUse">
<stop stop-color="#2C2C50"/>
<stop offset="1" stop-color="#434375"/>
</linearGradient>
<linearGradient id="paint3_linear_540_122" x1="242141" y1="43179.1" x2="242079" y2="53097.9" gradientUnits="userSpaceOnUse">
<stop stop-color="#2C2C50"/>
<stop offset="1" stop-color="#434375"/>
</linearGradient>
<linearGradient id="paint4_linear_540_122" x1="177963" y1="39447.3" x2="177747" y2="52224.5" gradientUnits="userSpaceOnUse">
<stop stop-color="#2C2C50"/>
<stop offset="1" stop-color="#434375"/>
</linearGradient>
<linearGradient id="paint5_linear_540_122" x1="281347" y1="42747.7" x2="281310" y2="56768.1" gradientUnits="userSpaceOnUse">
<stop stop-color="#2C2C50"/>
<stop offset="1" stop-color="#434375"/>
</linearGradient>
<linearGradient id="paint6_linear_540_122" x1="385.68" y1="257.907" x2="385.68" y2="408.908" gradientUnits="userSpaceOnUse">
<stop offset="0.07" stop-color="#9C536B"/>
<stop offset="0.98" stop-color="#D98981"/>
</linearGradient>
<linearGradient id="paint7_linear_540_122" x1="242.5" y1="356.25" x2="750" y2="356.25" gradientUnits="userSpaceOnUse">
<stop stop-color="#FBBD93"/>
<stop offset="0.98" stop-color="#C46976"/>
</linearGradient>
<linearGradient id="paint8_linear_540_122" x1="467.26" y1="500" x2="467.26" y2="225.47" gradientUnits="userSpaceOnUse">
<stop offset="0.01" stop-color="#FFB8BD"/>
<stop offset="1" stop-color="#914D64"/>
</linearGradient>
<linearGradient id="paint9_linear_540_122" x1="216.56" y1="227.64" x2="191.14" y2="600.82" gradientUnits="userSpaceOnUse">
<stop stop-color="#70375A"/>
<stop offset="0.96" stop-color="#8A6E95"/>
</linearGradient>
<linearGradient id="paint10_linear_540_122" x1="1" y1="413.12" x2="340.58" y2="413.12" gradientUnits="userSpaceOnUse">
<stop stop-color="#433D6C"/>
<stop offset="1" stop-color="#392E54"/>
</linearGradient>
<linearGradient id="paint11_linear_540_122" x1="454.13" y1="295.961" x2="454.13" y2="498.931" gradientUnits="userSpaceOnUse">
<stop stop-color="#2B2850"/>
<stop offset="0.99" stop-color="#563A6A"/>
</linearGradient>
<linearGradient id="paint12_linear_540_122" x1="434.381" y1="391.96" x2="474.271" y2="516.33" gradientUnits="userSpaceOnUse">
<stop offset="0.3" stop-color="#1C1B38"/>
<stop offset="0.38" stop-color="#201E3E"/>
<stop offset="0.9" stop-color="#383263"/>
</linearGradient>
<linearGradient id="paint13_linear_540_122" x1="259.18" y1="335.54" x2="213.65" y2="500.39" gradientUnits="userSpaceOnUse">
<stop stop-color="#0E0A1A"/>
<stop offset="0.3" stop-color="#100D1F"/>
<stop offset="0.64" stop-color="#17142C"/>
<stop offset="0.95" stop-color="#201F3F"/>
</linearGradient>
<linearGradient id="paint14_linear_540_122" x1="508.161" y1="321.39" x2="726.971" y2="623.69" gradientUnits="userSpaceOnUse">
<stop offset="0.01" stop-color="#120E22"/>
<stop offset="1" stop-color="#221D42"/>
</linearGradient>
<clipPath id="clip0_540_122">
<rect width="750" height="500" fill="white"/>
</clipPath>
</defs>
</svg>
